# Paragon Purveyors separated asset: 01_meat_piece_01
# Source object: Cube
# Role: meat
mtllib 01_meat_piece_01.mtl
o 01_meat_piece_01
v 0.696238 0.152419 -0.242839
v 0.734217 -0.133407 -0.145998
v 0.338464 0.309648 0.361540
v 0.376443 0.023822 0.458380
v -0.169690 -0.164083 -0.327383
v -0.150348 -0.309649 -0.278064
v -0.304581 0.034371 0.311260
v -0.285239 -0.111194 0.360579
v -0.695249 -0.221069 0.117520
v -0.721201 -0.137755 0.373599
v -0.734217 -0.039796 0.340410
v -0.708266 -0.123110 0.084330
v 0.207963 -0.290080 -0.390271
v 0.023673 0.142779 0.287679
v 0.050385 -0.058247 0.355789
v 0.181252 -0.089054 -0.458379
v -0.501906 -0.124287 0.367209
v -0.417715 -0.248772 -0.033227
v -0.433900 -0.126960 -0.074498
v -0.518091 -0.002476 0.325939
vt 0.189063 0.401362
vt 0.252972 0.447811
vt 0.259981 0.666023
vt 0.197251 0.656276
vt 0.026096 0.860915
vt 0.074458 0.860915
vt 0.058996 0.914263
vt 0.023977 0.914263
vt 0.130778 0.821952
vt 0.125290 0.958596
vt 0.089917 0.967468
vt 0.088987 0.880778
vt 0.224999 0.686138
vt 0.314866 0.755463
vt 0.269409 0.967468
vt 0.214659 0.940739
vt 0.026942 0.692675
vt 0.095705 0.692675
vt 0.095705 0.805709
vt 0.026942 0.805709
vt 0.026096 0.598293
vt 0.074458 0.598293
vt 0.029703 0.389320
vt 0.053270 0.389320
vt 0.053270 0.431809
vt 0.029703 0.431809
vt 0.294849 0.676072
vt 0.290516 0.539262
vt 0.331804 0.599491
vt 0.330141 0.686138
vt 0.056139 0.481562
vt 0.026834 0.481562
vt 0.026834 0.948311
vt 0.056139 0.948311
vt 0.053270 0.982774
vt 0.029703 0.982774
vt 0.023977 0.539262
vt 0.058996 0.539262
vt 0.169089 0.731782
vt 0.160238 0.949727
vt 0.088987 0.468879
vt 0.127749 0.686138
vn -0.316800 0.884800 -0.341800
vn -0.036400 0.316300 0.947900
vn 0.071500 -0.947400 0.311900
vn 0.132200 -0.937900 0.320700
vn 0.858700 0.263100 0.439900
vn 0.465000 -0.228100 -0.855500
vn -0.987500 -0.148700 -0.051700
vn -0.177900 0.929200 -0.323900
vn -0.475000 -0.338300 -0.812300
vn 0.007800 0.321800 0.946800
vn -0.264000 -0.340800 -0.902300
vn 0.152000 -0.934300 0.322400
vn -0.348600 0.258900 0.900800
vn -0.303600 0.878500 -0.369000
vn 0.009500 0.322000 0.946700
vn -0.679000 -0.314900 -0.663200
vn -0.182400 0.927400 -0.326700
vn 0.066800 -0.948700 0.309000
usemtl paragon_atlas_material
f 16/1/1 5/2/1 7/3/1 14/4/1
f 15/5/2 14/6/2 7/7/2 8/8/2
f 18/9/3 17/10/3 10/11/3 9/12/3
f 13/13/4 2/14/4 4/15/4 15/16/4
f 2/17/5 1/18/5 3/19/5 4/20/5
f 13/21/6 16/22/6 1/18/6 2/17/6
f 10/23/7 11/24/7 12/25/7 9/26/7
f 20/27/8 19/28/8 12/29/8 11/30/8
f 19/31/9 18/32/9 9/26/9 12/25/9
f 17/33/10 20/34/10 11/35/10 10/36/10
f 6/37/11 5/38/11 16/22/11 13/21/11
f 6/39/12 13/13/12 15/16/12 8/40/12
f 4/20/13 3/19/13 14/6/13 15/5/13
f 1/41/14 16/1/14 14/4/14 3/42/14
f 8/8/15 7/7/15 20/34/15 17/33/15
f 5/38/16 6/37/16 18/32/16 19/31/16
f 7/3/17 5/2/17 19/28/17 20/27/17
f 6/39/18 8/40/18 17/10/18 18/9/18
