# Paragon Purveyors separated asset: 02_wooden_plate_01
# Source object: Circle
# Role: wooden_plate
mtllib 02_wooden_plate_01.mtl
o 02_wooden_plate_01
v 0.040354 0.104136 -1.000000
v -0.459646 0.074311 -0.866025
v -0.825671 0.074311 -0.500000
v -0.959646 0.074311 0.000000
v -0.825671 0.074311 0.500000
v -0.459646 0.074311 0.866025
v 0.040354 0.074311 1.000000
v 0.540354 0.104136 0.866025
v 0.825672 0.154222 0.491127
v 0.959646 0.186310 -0.008873
v 0.825672 0.159998 -0.508874
v 0.540354 0.151876 -0.866025
v 0.040354 0.074311 -0.652674
v -0.285983 0.074311 -0.565233
v -0.524879 0.074311 -0.326337
v -0.612320 0.074311 0.000000
v -0.524879 0.074311 0.326337
v -0.285983 0.074311 0.565233
v 0.040354 0.074311 0.652674
v 0.366691 0.074311 0.565233
v 0.605587 0.122133 0.326337
v 0.693028 0.128254 0.000000
v 0.605587 0.128254 -0.326337
v 0.366691 0.115438 -0.565233
v 0.040354 0.074311 -0.342427
v -0.130860 0.074311 -0.296551
v -0.256197 0.074311 -0.171214
v -0.302073 0.074311 0.000000
v -0.256197 0.074311 0.171214
v -0.130860 0.074311 0.296551
v 0.040354 0.074311 0.342427
v 0.211568 0.074311 0.296551
v 0.336905 0.074311 0.171214
v 0.382781 0.089610 0.000000
v 0.336905 0.089610 -0.171214
v 0.211568 0.074311 -0.296551
v -0.010307 -0.186310 -0.887991
v -0.458844 -0.186310 -0.767806
v -0.787195 -0.186310 -0.439454
v -0.907380 -0.186310 0.009082
v -0.787195 -0.186310 0.457619
v -0.458844 -0.186310 0.785971
v -0.010307 -0.186310 0.906156
v 0.438230 -0.186310 0.785971
v 0.766582 -0.186310 0.457619
v 0.886767 -0.186310 0.009082
v 0.766582 -0.186310 -0.439454
v 0.438230 -0.186310 -0.767806
v -0.010307 -0.186310 -0.643592
v -0.336644 -0.186310 -0.556150
v -0.575539 -0.186310 -0.317255
v -0.662981 -0.186310 0.009082
v -0.575539 -0.186310 0.335420
v -0.336644 -0.186310 0.574315
v -0.010307 -0.186310 0.661757
v 0.316030 -0.186310 0.574315
v 0.554926 -0.186310 0.335420
v 0.642368 -0.186310 0.009082
v 0.554926 -0.186310 -0.317255
v 0.316030 -0.186310 -0.556150
v -0.010307 -0.186310 -0.333345
v -0.181521 -0.186310 -0.287468
v -0.306858 -0.186310 -0.162131
v -0.352734 -0.186310 0.009082
v -0.306858 -0.186310 0.180296
v -0.181521 -0.186310 0.305633
v -0.010307 -0.186310 0.351510
v 0.160907 -0.186310 0.305633
v 0.286244 -0.186310 0.180296
v 0.332121 -0.186310 0.009082
v 0.286244 -0.186310 -0.162131
v 0.160907 -0.186310 -0.287468
vt 0.784664 0.331606
vt 0.798224 0.287360
vt 0.855462 0.287576
vt 0.872633 0.331275
vt 0.990951 0.224187
vt 0.934065 0.208780
vt 0.934162 0.151466
vt 0.991130 0.136300
vt 0.871188 0.016146
vt 0.855912 0.073087
vt 0.798579 0.073086
vt 0.783306 0.016146
vt 0.708845 0.287095
vt 0.748605 0.258792
vt 0.946846 0.300339
vt 0.905319 0.258289
vt 0.947275 0.060133
vt 0.905549 0.101786
vt 0.662836 0.224620
vt 0.720002 0.209083
vt 0.707223 0.060144
vt 0.748965 0.101774
vt 0.720394 0.151392
vt 0.663210 0.136406
vt 0.868302 0.138972
vt 0.842269 0.123927
vt 0.771155 0.195002
vt 0.786042 0.221224
vt 0.786174 0.138952
vt 0.771154 0.164968
vt 0.842209 0.236062
vt 0.868228 0.221082
vt 0.883312 0.165023
vt 0.812203 0.123923
vt 0.812066 0.236255
vt 0.883281 0.195080
vt 0.345474 0.135376
vt 0.387359 0.062829
vt 0.418535 0.094005
vt 0.388061 0.146787
vt 0.543677 0.020943
vt 0.616224 0.062829
vt 0.585048 0.094005
vt 0.532266 0.063531
vt 0.658109 0.219146
vt 0.616224 0.291694
vt 0.585048 0.260517
vt 0.615522 0.207735
vt 0.345474 0.219146
vt 0.388061 0.207735
vt 0.459906 0.020943
vt 0.471318 0.063531
vt 0.658109 0.135376
vt 0.615522 0.146787
vt 0.387359 0.291694
vt 0.418535 0.260517
vt 0.543677 0.333579
vt 0.459906 0.333579
vt 0.471318 0.290991
vt 0.532266 0.290991
vt 0.561461 0.193249
vt 0.561461 0.161273
vt 0.442122 0.193249
vt 0.458111 0.220942
vt 0.485803 0.236930
vt 0.517780 0.236930
vt 0.485803 0.117592
vt 0.458111 0.133580
vt 0.545472 0.133580
vt 0.545472 0.220942
vt 0.442122 0.161273
vt 0.517780 0.117592
vt 0.805496 0.395215
vt 0.754029 0.395215
vt 0.754029 0.362280
vt 0.805496 0.362280
vt 0.551303 0.395215
vt 0.502178 0.395215
vt 0.502178 0.362280
vt 0.551303 0.362280
vt 0.399288 0.395215
vt 0.347866 0.395215
vt 0.347866 0.362280
vt 0.399288 0.362280
vt 0.702492 0.395215
vt 0.702492 0.362280
vt 0.856918 0.395215
vt 0.856918 0.362280
vt 0.602777 0.395215
vt 0.602777 0.362280
vt 0.450711 0.395215
vt 0.450711 0.362280
vt 0.908340 0.395215
vt 0.908340 0.362280
vt 0.654234 0.395215
vt 0.654234 0.362280
vt 0.959763 0.395215
vt 0.959763 0.362280
vn -0.181200 0.983400 -0.003100
vn -0.000000 1.000000 -0.000000
vn -0.175500 0.984400 0.015700
vn -0.045100 0.998400 -0.033900
vn -0.103300 0.993100 0.056000
vn -0.022100 0.998400 0.051900
vn -0.169600 0.985400 0.012400
vn -0.124600 0.989900 0.067800
vn -0.131400 0.989800 0.055000
vn -0.121200 0.992600 0.009200
vn -0.094400 0.994500 0.045400
vn -0.148500 0.988900 0.002800
vn -0.123500 0.991800 0.033100
vn -0.013900 0.999900 0.003700
vn -0.000000 -1.000000 -0.000000
vn -0.234900 -0.327800 -0.915100
vn 0.729800 -0.297300 0.615700
vn -0.690700 -0.214300 0.690700
vn 0.258200 -0.362300 -0.895600
vn -0.682900 -0.259500 -0.682900
vn 0.951400 -0.181500 0.248800
vn -0.248100 -0.285100 0.925800
vn -0.946700 -0.198700 -0.253700
vn 0.947000 -0.204000 -0.248100
vn 0.252400 -0.354100 0.900500
vn -0.949900 -0.181600 0.254500
vn 0.707600 -0.320800 -0.629600
usemtl paragon_atlas_material
f 10/1/1 22/2/1 21/3/1 9/4/1
f 7/5/2 19/6/2 18/7/2 6/8/2
f 4/9/2 16/10/2 15/11/2 3/12/2
f 11/13/3 23/14/3 22/2/3 10/1/3
f 8/15/4 20/16/4 19/6/4 7/5/4
f 5/17/2 17/18/2 16/10/2 4/9/2
f 12/19/5 24/20/5 23/14/5 11/13/5
f 2/21/6 14/22/6 13/23/6 1/24/6
f 9/4/7 21/3/7 20/16/7 8/15/7
f 6/8/2 18/7/2 17/18/2 5/17/2
f 1/24/8 13/23/8 24/20/8 12/19/8
f 3/12/2 15/11/2 14/22/2 2/21/2
f 17/18/2 29/25/2 28/26/2 16/10/2
f 24/20/9 36/27/9 35/28/9 23/14/9
f 14/22/2 26/29/2 25/30/2 13/23/2
f 21/3/10 33/31/10 32/32/10 20/16/10
f 18/7/2 30/33/2 29/25/2 17/18/2
f 13/23/11 25/30/11 36/27/11 24/20/11
f 15/11/2 27/34/2 26/29/2 14/22/2
f 22/2/12 34/35/12 33/31/12 21/3/12
f 19/6/2 31/36/2 30/33/2 18/7/2
f 16/10/2 28/26/2 27/34/2 15/11/2
f 23/14/13 35/28/13 34/35/13 22/2/13
f 20/16/2 32/32/2 31/36/2 19/6/2
f 26/29/14 27/34/14 28/26/14 29/25/14 30/33/14 31/36/14 32/32/14 33/31/14 34/35/14 35/28/14 36/27/14 25/30/14
f 46/37/15 45/38/15 57/39/15 58/40/15
f 43/41/15 42/42/15 54/43/15 55/44/15
f 40/45/15 39/46/15 51/47/15 52/48/15
f 47/49/15 46/37/15 58/40/15 59/50/15
f 44/51/15 43/41/15 55/44/15 56/52/15
f 41/53/15 40/45/15 52/48/15 53/54/15
f 48/55/15 47/49/15 59/50/15 60/56/15
f 38/57/15 37/58/15 49/59/15 50/60/15
f 45/38/15 44/51/15 56/52/15 57/39/15
f 42/42/15 41/53/15 53/54/15 54/43/15
f 37/58/15 48/55/15 60/56/15 49/59/15
f 39/46/15 38/57/15 50/60/15 51/47/15
f 53/54/15 52/48/15 64/61/15 65/62/15
f 60/56/15 59/50/15 71/63/15 72/64/15
f 50/60/15 49/59/15 61/65/15 62/66/15
f 57/39/15 56/52/15 68/67/15 69/68/15
f 54/43/15 53/54/15 65/62/15 66/69/15
f 49/59/15 60/56/15 72/64/15 61/65/15
f 51/47/15 50/60/15 62/66/15 63/70/15
f 58/40/15 57/39/15 69/68/15 70/71/15
f 55/44/15 54/43/15 66/69/15 67/72/15
f 52/48/15 51/47/15 63/70/15 64/61/15
f 59/50/15 58/40/15 70/71/15 71/63/15
f 56/52/15 55/44/15 67/72/15 68/67/15
f 62/66/15 61/65/15 72/64/15 71/63/15 70/71/15 69/68/15 68/67/15 67/72/15 66/69/15 65/62/15 64/61/15 63/70/15
f 2/73/16 1/74/16 37/75/16 38/76/16
f 9/77/17 8/78/17 44/79/17 45/80/17
f 6/81/18 5/82/18 41/83/18 42/84/18
f 1/74/19 12/85/19 48/86/19 37/75/19
f 3/87/20 2/73/20 38/76/20 39/88/20
f 10/89/21 9/77/21 45/80/21 46/90/21
f 7/91/22 6/81/22 42/84/22 43/92/22
f 4/93/23 3/87/23 39/88/23 40/94/23
f 11/95/24 10/89/24 46/90/24 47/96/24
f 8/78/25 7/91/25 43/92/25 44/79/25
f 5/97/26 4/93/26 40/94/26 41/98/26
f 12/85/27 11/95/27 47/96/27 48/86/27
