# Paragon Purveyors separated asset: 03_meat_piece_02
# Source object: Cube.001
# Role: meat
mtllib 03_meat_piece_02.mtl
o 03_meat_piece_02
v -0.199827 -0.198082 0.175463
v -0.214912 0.027454 0.169277
v 0.248174 -0.185625 -0.462828
v 0.233090 0.039911 -0.469014
v 0.628467 -0.110583 0.603934
v 0.608097 0.193973 0.595581
v 1.044521 -0.103242 -0.142967
v 1.024151 0.201314 -0.151321
v -0.060596 -0.200866 -0.265568
v -0.075706 0.025082 -0.271768
v 1.000194 -0.093626 0.315687
v 0.979825 0.210929 0.307333
v -0.562804 -0.195336 -0.288499
v -0.620229 -0.196349 -0.185409
v -0.630025 -0.049898 -0.189426
v -0.572599 -0.048884 -0.292517
v -0.976775 -0.185032 -0.599792
v -1.034423 -0.186049 -0.496303
v -1.044521 -0.035067 -0.500444
v -0.986873 -0.034049 -0.603934
v 0.665352 -0.152819 -0.354667
v 0.649764 0.080238 -0.361059
v 0.336296 -0.142026 0.556626
v 0.318681 0.121348 0.549402
v 0.357167 0.069449 -0.040903
v 0.372755 -0.163608 -0.034510
v 0.456827 -0.170176 -0.408721
v -0.111188 0.037274 0.274367
v 0.135674 -0.185029 -0.166785
v 0.441589 0.057656 -0.414970
v -0.096104 -0.188262 0.280553
v 0.120528 0.041428 -0.172996
v -0.789194 -0.063138 -0.419925
v -0.846651 -0.064144 -0.316807
v -0.836834 -0.210929 -0.312780
v -0.779377 -0.209931 -0.415898
v -0.324822 -0.011443 -0.274353
v -0.387431 -0.010098 -0.065007
v -0.374953 -0.196662 -0.059890
v -0.312333 -0.198216 -0.269226
vt 0.885340 0.555109
vt 0.960668 0.555109
vt 0.960531 0.587359
vt 0.885340 0.587359
vt 0.885983 0.625369
vt 0.963681 0.625369
vt 0.993623 0.663773
vt 0.892089 0.663773
vt 0.892089 0.704305
vt 0.993623 0.704305
vt 0.993623 0.745699
vt 0.892089 0.745699
vt 0.885340 0.817149
vt 0.960531 0.817149
vt 0.960531 0.830163
vt 0.885340 0.830163
vt 0.534658 0.582890
vt 0.534614 0.407959
vt 0.639096 0.452306
vt 0.663489 0.520450
vt 0.742206 0.729398
vt 0.746078 0.676306
vt 0.854651 0.701687
vt 0.863705 0.736205
vt 0.651992 0.765696
vt 0.666877 0.715709
vt 0.432730 0.559007
vt 0.432730 0.452363
vt 0.828039 0.633947
vt 0.776921 0.621217
vt 0.804401 0.564360
vt 0.832833 0.565377
vt 0.833622 0.504612
vt 0.805180 0.503598
vt 0.792294 0.427136
vt 0.820836 0.428161
vt 0.566543 0.757583
vt 0.617992 0.746126
vt 0.621002 0.814837
vt 0.592536 0.815114
vt 0.891837 0.855905
vt 0.954034 0.855905
vt 0.947348 0.880071
vt 0.898523 0.880071
vt 0.954104 0.533034
vt 0.891837 0.533033
vt 0.898523 0.511011
vt 0.947348 0.511011
vt 0.913955 0.925718
vt 0.964290 0.925718
vt 0.964290 0.936136
vt 0.913955 0.936136
vt 0.591734 0.875895
vt 0.620209 0.875621
vt 0.605417 0.949652
vt 0.576841 0.949938
vt 0.948584 0.488879
vt 0.899646 0.488879
vt 0.913955 0.465355
vt 0.964290 0.465355
vt 0.899651 0.902204
vt 0.948587 0.902204
vt 0.445969 0.609448
vt 0.534781 0.648636
vt 0.636921 0.948896
vt 0.636921 0.815808
vt 0.740148 0.796002
vt 0.739869 0.988905
vt 0.869557 0.867222
vt 0.845477 0.949255
vt 0.656268 0.644763
vt 0.976377 0.771858
vt 0.888572 0.771858
vt 0.885343 0.606364
vt 0.961299 0.606364
vt 0.537137 0.701733
vt 0.646374 0.679062
vt 0.459203 0.659871
vn -0.535400 -0.058900 -0.842600
vn 0.486600 0.008600 -0.873600
vn 0.609800 0.062500 0.790100
vn -0.710100 -0.028200 0.703500
vn 0.089500 -0.994900 0.046800
vn -0.068800 0.997300 -0.026700
vn -0.071700 0.996900 -0.032400
vn 0.095800 -0.994600 0.040000
vn 0.993100 0.069000 0.094500
vn -0.139800 0.988700 -0.054800
vn 0.090400 0.994100 0.060100
vn -0.006200 -1.000000 -0.000700
vn -0.455600 -0.006100 0.890200
vn 0.076400 -0.022200 -0.996800
vn -0.871100 -0.071600 -0.485900
vn -0.076700 -0.995700 -0.052400
vn 0.683100 0.025700 -0.729800
vn -0.682000 -0.025600 0.730900
vn 0.072600 -0.996800 0.033800
vn -0.207200 0.974300 -0.088200
vn -0.176800 0.976700 -0.121400
vn 0.077700 -0.996300 0.037700
vn -0.161500 0.016300 0.986700
vn 0.251700 -0.009700 -0.967800
vn 0.066700 -0.997400 0.027400
vn -0.091400 0.994500 -0.052000
vn -0.119600 0.989900 -0.076700
vn -0.537100 -0.012800 0.843400
vn -0.506400 -0.010200 0.862300
vn 0.506500 0.010200 -0.862200
vn 0.055000 -0.998300 0.020900
vn -0.053800 0.998300 -0.020200
vn 0.014200 -0.026500 -0.999500
vn -0.801800 -0.037300 0.596400
vn -0.011300 -0.999900 0.003200
vn -0.145100 0.988100 -0.050700
usemtl paragon_atlas_material
f 9/1/1 10/2/1 4/3/1 3/4/1
f 21/5/2 22/6/2 8/7/2 7/8/2
f 11/9/3 12/10/3 6/11/3 5/12/3
f 31/13/4 28/14/4 2/15/4 1/16/4
f 26/17/5 11/18/5 5/19/5 23/20/5
f 32/21/6 10/22/6 2/23/6 28/24/6
f 30/25/7 4/26/7 10/22/7 32/21/7
f 21/27/8 7/28/8 11/18/8 26/17/8
f 7/8/9 8/7/9 12/10/9 11/9/9
f 38/29/10 37/30/10 16/31/10 15/32/10
f 34/33/11 33/34/11 20/35/11 19/36/11
f 40/37/12 39/38/12 14/39/12 13/40/12
f 39/41/13 38/42/13 15/43/13 14/44/13
f 37/45/14 40/46/14 13/47/14 16/48/14
f 18/49/15 19/50/15 20/51/15 17/52/15
f 36/53/16 35/54/16 18/55/16 17/56/16
f 33/57/17 36/58/17 17/59/17 20/60/17
f 35/61/18 34/62/18 19/50/18 18/49/18
f 27/63/19 21/27/19 26/17/19 29/64/19
f 8/65/20 22/66/20 25/67/20 12/68/20
f 12/68/21 25/67/21 24/69/21 6/70/21
f 29/64/22 26/17/22 23/20/22 31/71/22
f 5/12/23 6/11/23 24/72/23 23/73/23
f 27/74/24 30/75/24 22/6/24 21/5/24
f 3/4/24 4/3/24 30/75/24 27/74/24
f 9/76/25 29/64/25 31/71/25 1/77/25
f 3/78/25 27/63/25 29/64/25 9/76/25
f 22/66/26 30/25/26 32/21/26 25/67/26
f 25/67/27 32/21/27 28/24/27 24/69/27
f 23/73/28 24/72/28 28/14/28 31/13/28
f 14/44/29 15/43/29 34/62/29 35/61/29
f 16/48/30 13/47/30 36/58/30 33/57/30
f 13/40/31 14/39/31 35/54/31 36/53/31
f 15/32/32 16/31/32 33/34/32 34/33/32
f 10/2/33 9/1/33 40/46/33 37/45/33
f 1/16/34 2/15/34 38/42/34 39/41/34
f 9/76/35 1/77/35 39/38/35 40/37/35
f 2/23/36 10/22/36 37/30/36 38/29/36
