# Paragon Purveyors separated asset: 04_meat_piece_03
# Source object: Cube.003
# Role: meat
mtllib 04_meat_piece_03.mtl
o 04_meat_piece_03
v -0.266336 -0.112409 0.258239
v -0.268046 0.099352 0.259424
v -0.224643 -0.100606 -0.246744
v -0.226354 0.111155 -0.245560
v 0.259693 -0.108206 0.266617
v 0.257696 0.138958 0.267999
v 0.268047 -0.105197 -0.259420
v 0.266337 0.106564 -0.258236
v -0.330268 -0.138958 -0.006003
v -0.332423 0.127818 -0.004512
v 0.332423 -0.133663 0.004551
v 0.330268 0.133112 0.006043
v 0.006300 -0.106843 -0.343405
v 0.004590 0.104919 -0.342220
v -0.004589 -0.110764 0.342221
v -0.006299 0.100997 0.343405
v -0.001078 0.130466 0.000769
v 0.001077 -0.136312 -0.000721
vt 0.018751 0.062392
vt 0.128147 0.064004
vt 0.119771 0.107332
vt 0.032934 0.106053
vt 0.028783 0.147311
vt 0.115619 0.148590
vt 0.114951 0.193963
vt 0.028115 0.192684
vt 0.016174 0.237380
vt 0.125570 0.238991
vt 0.128147 0.283895
vt 0.026793 0.282403
vt 0.026125 0.327775
vt 0.112961 0.329054
vt 0.112293 0.374426
vt 0.025457 0.373147
vt 0.243833 0.294028
vt 0.154066 0.320260
vt 0.150957 0.241467
vt 0.215877 0.199426
vt 0.241058 0.104650
vt 0.150957 0.079121
vt 0.190024 0.010784
vt 0.267211 0.009403
vt 0.213199 0.199426
vt 0.159429 0.153750
vt 0.271216 0.388812
vt 0.193873 0.388339
vt 0.030692 0.017702
vt 0.117528 0.018981
vt 0.326865 0.345239
vt 0.333440 0.267252
vt 0.290400 0.199426
vt 0.330687 0.131790
vt 0.334018 0.055328
vt 0.293221 0.199426
vn -0.915400 -0.005100 -0.402500
vn 0.305500 0.007800 -0.952200
vn 0.963700 0.006300 0.266800
vn -0.305500 -0.007800 0.952200
vn 0.018900 -0.996100 0.086400
vn -0.021800 0.995000 0.097200
vn -0.005500 0.997300 -0.073100
vn 0.021800 -0.995000 -0.097200
vn 0.971700 0.009200 -0.236000
vn -0.971700 -0.009200 0.236000
vn -0.025900 -0.992400 -0.120300
vn 0.005700 0.996300 -0.086000
vn -0.064400 0.997500 0.030700
vn -0.005700 -0.996300 0.086000
vn 0.275100 -0.003200 0.961400
vn -0.386000 0.002000 -0.922500
usemtl paragon_atlas_material
f 9/1/1 10/2/1 4/3/1 3/4/1
f 13/5/2 14/6/2 8/7/2 7/8/2
f 11/9/3 12/10/3 6/11/3 5/12/3
f 15/13/4 16/14/4 2/15/4 1/16/4
f 18/17/5 11/18/5 5/19/5 15/20/5
f 17/21/6 10/22/6 2/23/6 16/24/6
f 14/25/7 4/26/7 10/22/7 17/21/7
f 13/27/8 7/28/8 11/18/8 18/17/8
f 7/8/9 8/7/9 12/10/9 11/9/9
f 1/29/10 2/30/10 10/2/10 9/1/10
f 3/31/11 13/27/11 18/17/11 9/32/11
f 8/33/12 14/25/12 17/21/12 12/34/12
f 12/34/13 17/21/13 16/24/13 6/35/13
f 9/32/14 18/17/14 15/20/14 1/36/14
f 5/12/15 6/11/15 16/14/15 15/13/15
f 3/4/16 4/3/16 14/6/16 13/5/16
