# Paragon Purveyors separated asset: 05_leaf_sprig_01
# Source object: Plane
# Role: leaf
mtllib 05_leaf_sprig_01.mtl
o 05_leaf_sprig_01
v 0.059128 0.032366 0.178662
v -0.181822 -0.032798 -0.337994
v 0.061053 0.031408 0.182457
v -0.194315 -0.033141 -0.331747
v -0.164886 -0.026237 -0.302441
v -0.151216 -0.019132 -0.263178
v -0.110364 -0.007202 -0.193167
v -0.090934 0.001285 -0.159262
v -0.050578 0.025019 -0.059930
v -0.043320 0.027687 -0.044451
v -0.004553 0.033450 0.037241
v 0.006415 0.033343 0.057767
v 0.023257 0.032341 0.090294
v 0.034575 0.033485 0.117790
v -0.176820 -0.026632 -0.296403
v -0.160534 -0.019772 -0.263460
v -0.124071 -0.008353 -0.189918
v -0.093104 0.006105 -0.127199
v -0.066921 0.018780 -0.074144
v -0.048524 0.026474 -0.036932
v -0.028393 0.031359 0.003592
v -0.006766 0.032642 0.046909
v 0.025503 0.032410 0.111424
v 0.048740 0.030323 0.157777
v -0.038099 -0.025064 -0.215628
v -0.025590 -0.018343 -0.189078
v 0.013533 0.004819 -0.139131
v 0.027383 0.013551 -0.116687
v 0.079371 0.021532 -0.031382
v 0.087120 0.019123 -0.010361
v 0.108234 0.015221 0.057483
v 0.120106 0.013799 0.076653
v 0.189768 0.015031 0.189869
v 0.197927 0.017411 0.205801
v 0.194821 -0.017027 0.131682
v 0.206808 -0.016665 0.152071
v -0.031123 0.030988 -0.016860
v -0.015804 0.032726 0.016093
v -0.042498 0.028426 -0.024775
v -0.035830 0.030111 -0.011349
v 0.116495 0.000226 0.019587
v 0.122915 -0.001460 0.042510
v -0.063753 0.018017 -0.088574
v -0.078203 0.012988 -0.097023
v -0.075858 0.010252 -0.118397
v -0.085231 0.009641 -0.111261
v 0.144595 0.003519 -0.048429
v 0.133235 0.001819 -0.066503
v 0.055453 0.030291 0.155344
v 0.049294 0.029517 0.158839
v 0.187088 0.028062 0.273825
v 0.183090 0.026047 0.259547
v -0.206808 -0.033485 -0.325499
v -0.188812 -0.026895 -0.290476
v -0.165918 -0.019537 -0.255827
v -0.134929 -0.007878 -0.180882
v -0.119830 0.000490 -0.144812
v -0.065618 0.024606 -0.052409
v -0.057706 0.027291 -0.037257
v -0.015858 0.033140 0.042894
v -0.006010 0.033001 0.063980
v 0.009956 0.031975 0.096946
v 0.025112 0.033225 0.122522
v -0.195385 -0.029389 -0.136972
v -0.181944 -0.022642 -0.110889
v -0.166457 -0.000131 -0.049122
v -0.157190 0.008475 -0.024386
v -0.120469 0.016037 0.068554
v -0.108196 0.013753 0.087313
v -0.066422 0.010418 0.144825
v -0.058142 0.008898 0.165791
v -0.009393 0.009555 0.289465
v -0.001645 0.011923 0.305602
v -0.057535 -0.023966 0.257880
v -0.048428 -0.023684 0.279708
v -0.043094 0.030659 -0.010874
v -0.025997 0.032446 0.021191
v -0.101012 -0.005756 0.128358
v -0.086454 -0.007217 0.147211
v -0.080323 0.017561 -0.080288
v -0.096579 0.009682 -0.108035
v -0.172372 -0.005197 0.110079
v -0.179945 -0.006793 0.090112
v 0.042776 0.029942 0.161683
v 0.058771 0.024533 0.337994
v 0.049836 0.022383 0.326184
vt 0.385102 0.599595
vt 0.393260 0.598124
vt 0.389321 0.573702
vt 0.380796 0.575208
vt 0.440855 0.913422
vt 0.444338 0.912900
vt 0.439294 0.887030
vt 0.440619 0.912639
vt 0.437212 0.868337
vt 0.434824 0.881506
vt 0.433019 0.846090
vt 0.427077 0.837314
vt 0.430141 0.831952
vt 0.421826 0.807596
vt 0.418356 0.787939
vt 0.423868 0.794835
vt 0.421464 0.775979
vt 0.416858 0.779453
vt 0.419859 0.765339
vt 0.412277 0.753511
vt 0.407701 0.727593
vt 0.414563 0.725073
vt 0.412576 0.697578
vt 0.405748 0.716530
vt 0.406790 0.673484
vt 0.398052 0.672943
vt 0.394622 0.624213
vt 0.389127 0.622395
vt 0.524297 0.968484
vt 0.522408 0.957227
vt 0.498426 0.877285
vt 0.494636 0.863802
vt 0.494039 0.818300
vt 0.492867 0.804337
vt 0.475751 0.743811
vt 0.471551 0.727117
vt 0.457469 0.689115
vt 0.454910 0.670641
vt 0.539471 0.937448
vt 0.536258 0.923192
vt 0.427182 0.817352
vt 0.420002 0.797264
vt 0.509212 0.856492
vt 0.508921 0.841566
vt 0.416775 0.745470
vt 0.409449 0.737493
vt 0.536536 0.800472
vt 0.532507 0.787829
vt 0.438366 0.916320
vt 0.438477 0.916568
vt 0.427898 0.961890
vt 0.431333 0.959196
vt 0.372270 0.576713
vt 0.376932 0.601006
vt 0.432613 0.887899
vt 0.436172 0.915053
vt 0.428167 0.870162
vt 0.424476 0.847646
vt 0.422353 0.833315
vt 0.411340 0.777767
vt 0.415539 0.796306
vt 0.409205 0.767221
vt 0.392842 0.701062
vt 0.400391 0.727575
vt 0.390028 0.676444
vt 0.384587 0.625985
vt 0.380710 0.980049
vt 0.382807 0.990945
vt 0.372372 0.885456
vt 0.373410 0.899482
vt 0.353966 0.828861
vt 0.357647 0.842382
vt 0.347549 0.749011
vt 0.349320 0.766134
vt 0.343844 0.690252
vt 0.347766 0.708485
vt 0.353245 0.956235
vt 0.355112 0.970846
vt 0.420136 0.818592
vt 0.351642 0.869326
vt 0.356480 0.883447
vt 0.405298 0.747497
vt 0.311069 0.826926
vt 0.311614 0.840185
vt 0.440948 0.933633
vt 0.442294 0.934738
vn -0.097400 0.986100 -0.134500
vn 0.035100 0.995900 0.083700
vn -0.185500 0.977600 0.099300
vn -0.031000 0.999100 0.028400
vn -0.136500 0.989300 0.051500
vn -0.221300 0.974800 -0.027400
vn -0.317900 0.947600 -0.031500
vn -0.157500 0.975900 -0.151200
vn -0.134400 0.977600 -0.162000
vn -0.091400 0.989500 -0.111700
vn -0.089400 0.984100 -0.153200
vn 0.191400 0.967700 -0.164400
vn 0.174700 0.982600 -0.062700
vn 0.053200 0.998200 -0.028900
vn 0.026900 0.951500 -0.306600
vn 0.160700 0.951100 -0.263800
vn 0.307800 0.938500 -0.156300
vn -0.111300 0.993800 0.003400
vn -0.172700 0.984900 0.009200
vn 0.239900 0.966200 -0.094200
vn -0.269300 0.956800 -0.109800
vn -0.220100 0.964200 -0.147600
vn 0.106500 0.964200 -0.242700
vn -0.333500 0.942300 0.030100
vn 0.138000 0.981200 -0.134900
vn -0.092500 0.986300 -0.136900
vn 0.002100 0.995000 0.100200
vn 0.147500 0.986800 -0.067300
vn -0.002600 0.999900 0.014200
vn 0.079400 0.995200 -0.056500
vn 0.067800 0.982800 -0.172000
vn 0.123500 0.959700 -0.252300
vn -0.069500 0.978300 -0.195200
vn -0.092000 0.978800 -0.183200
vn -0.078100 0.989900 -0.118400
vn -0.112200 0.983500 -0.141800
vn -0.288600 0.954500 0.075700
vn -0.198000 0.972400 0.123700
vn -0.098900 0.994000 0.047100
vn -0.303100 0.942400 -0.141600
vn -0.349000 0.937100 -0.008800
vn -0.350600 0.920400 0.172900
vn 0.025700 0.997500 -0.065100
vn 0.067500 0.991500 -0.110900
vn -0.261500 0.952400 0.156500
vn 0.031500 0.965000 -0.260200
vn -0.028600 0.969500 -0.243400
vn -0.300200 0.953100 -0.039300
vn 0.182400 0.956400 -0.227900
vn -0.233700 0.971000 0.051000
usemtl paragon_atlas_material
f 15/1/1 5/2/1 2/3/1 4/4/1
f 50/5/2 49/6/2 14/7/2 24/8/2
f 24/8/3 14/7/3 13/9/3 23/10/3
f 23/10/4 13/9/4 12/11/4 22/12/4
f 22/12/5 12/11/5 11/13/5 21/14/5
f 39/15/6 37/16/6 10/17/6 20/18/6
f 20/18/7 10/17/7 9/19/7 19/20/7
f 46/21/8 45/22/8 8/23/8 18/24/8
f 18/24/9 8/23/9 7/25/9 17/26/9
f 17/26/10 7/25/10 6/27/10 16/28/10
f 16/28/11 6/27/11 5/2/11 15/1/11
f 14/7/12 34/29/12 33/30/12 13/9/12
f 12/11/13 32/31/13 31/32/13 11/13/13
f 10/17/14 30/33/14 29/34/14 9/19/14
f 8/23/15 28/35/15 27/36/15 7/25/15
f 6/27/16 26/37/16 25/38/16 5/2/16
f 13/9/17 36/39/17 35/40/17 12/11/17
f 21/14/18 11/13/18 38/41/18 40/42/18
f 40/42/19 38/41/19 37/16/19 39/15/19
f 38/41/20 42/43/20 41/44/20 37/16/20
f 19/20/21 9/19/21 43/45/21 44/46/21
f 44/46/22 43/45/22 45/22/22 46/21/22
f 43/45/23 47/47/23 48/48/23 45/22/23
f 3/49/24 1/50/24 49/6/24 50/5/24
f 1/50/25 51/51/25 52/52/25 49/6/25
f 15/1/26 4/4/26 53/53/26 54/54/26
f 50/5/27 24/8/27 63/55/27 84/56/27
f 24/8/28 23/10/28 62/57/28 63/55/28
f 23/10/29 22/12/29 61/58/29 62/57/29
f 22/12/30 21/14/30 60/59/30 61/58/30
f 39/15/31 20/18/31 59/60/31 76/61/31
f 20/18/32 19/20/32 58/62/32 59/60/32
f 46/21/33 18/24/33 57/63/33 81/64/33
f 18/24/34 17/26/34 56/65/34 57/63/34
f 17/26/35 16/28/35 55/66/35 56/65/35
f 16/28/36 15/1/36 54/54/36 55/66/36
f 63/55/37 62/57/37 72/67/37 73/68/37
f 61/58/38 60/59/38 70/69/38 71/70/38
f 59/60/39 58/62/39 68/71/39 69/72/39
f 57/63/40 56/65/40 66/73/40 67/74/40
f 55/66/41 54/54/41 64/75/41 65/76/41
f 62/57/42 61/58/42 74/77/42 75/78/42
f 21/14/43 40/42/43 77/79/43 60/59/43
f 40/42/44 39/15/44 76/61/44 77/79/44
f 77/79/45 76/61/45 78/80/45 79/81/45
f 19/20/46 44/46/46 80/82/46 58/62/46
f 44/46/47 46/21/47 81/64/47 80/82/47
f 80/82/48 81/64/48 83/83/48 82/84/48
f 3/49/49 50/5/49 84/56/49 1/50/49
f 1/50/50 84/56/50 86/85/50 85/86/50
