# Paragon Purveyors separated asset: 06_meat_piece_04
# Source object: Cube.004
# Role: meat
mtllib 06_meat_piece_04.mtl
o 06_meat_piece_04
v -0.048178 -0.083526 0.378926
v -0.061872 0.126830 0.358674
v -0.343451 -0.133418 -0.029986
v -0.357145 0.076938 -0.050239
v 0.357145 -0.089428 0.043557
v 0.341162 0.156095 0.019919
v 0.023454 -0.149877 -0.358673
v 0.009760 0.060478 -0.378926
v -0.265885 -0.140306 0.224021
v -0.283136 0.124699 0.198506
v 0.244742 -0.147742 -0.198479
v 0.227490 0.117263 -0.223993
v -0.229826 -0.156095 -0.252005
v -0.243520 0.054260 -0.272257
v 0.205100 -0.077308 0.272255
v 0.191406 0.133048 0.252002
v -0.027821 0.120982 -0.012741
v -0.010569 -0.144024 0.012773
vt 0.018751 0.062392
vt 0.128147 0.064004
vt 0.119771 0.107332
vt 0.032934 0.106053
vt 0.028783 0.147311
vt 0.115619 0.148590
vt 0.114951 0.193963
vt 0.028115 0.192684
vt 0.016174 0.237380
vt 0.125570 0.238991
vt 0.128147 0.283895
vt 0.026793 0.282403
vt 0.026125 0.327775
vt 0.112961 0.329054
vt 0.112293 0.374426
vt 0.025457 0.373147
vt 0.243833 0.294028
vt 0.154066 0.320260
vt 0.150957 0.241467
vt 0.215877 0.199426
vt 0.241058 0.104650
vt 0.150957 0.079121
vt 0.190024 0.010784
vt 0.267211 0.009403
vt 0.213199 0.199426
vt 0.159429 0.153750
vt 0.271216 0.388812
vt 0.193873 0.388339
vt 0.030692 0.017702
vt 0.117528 0.018981
vt 0.326865 0.345239
vt 0.333440 0.267252
vt 0.290400 0.199426
vt 0.330687 0.131790
vt 0.334018 0.055328
vt 0.293221 0.199426
vn -0.956100 -0.034200 0.291000
vn -0.383300 -0.113200 -0.916700
vn 0.905200 0.018000 -0.424700
vn 0.383300 0.113200 0.916700
vn 0.132100 -0.978600 0.157600
vn -0.015700 0.999700 -0.017200
vn -0.113400 0.981200 -0.156400
vn 0.015700 -0.999700 0.017200
vn 0.586200 -0.039700 -0.809200
vn -0.586200 0.039800 0.809200
vn -0.035700 -0.998900 0.030400
vn -0.113100 0.978400 -0.173300
vn -0.091200 0.995000 -0.039900
vn 0.113100 -0.978400 0.173300
vn 0.830600 0.106700 0.546600
vn -0.889800 -0.100800 -0.445100
usemtl paragon_atlas_material
f 9/1/1 10/2/1 4/3/1 3/4/1
f 13/5/2 14/6/2 8/7/2 7/8/2
f 11/9/3 12/10/3 6/11/3 5/12/3
f 15/13/4 16/14/4 2/15/4 1/16/4
f 18/17/5 11/18/5 5/19/5 15/20/5
f 17/21/6 10/22/6 2/23/6 16/24/6
f 14/25/7 4/26/7 10/22/7 17/21/7
f 13/27/8 7/28/8 11/18/8 18/17/8
f 7/8/9 8/7/9 12/10/9 11/9/9
f 1/29/10 2/30/10 10/2/10 9/1/10
f 3/31/11 13/27/11 18/17/11 9/32/11
f 8/33/12 14/25/12 17/21/12 12/34/12
f 12/34/13 17/21/13 16/24/13 6/35/13
f 9/32/14 18/17/14 15/20/14 1/36/14
f 5/12/15 6/11/15 16/14/15 15/13/15
f 3/4/16 4/3/16 14/6/16 13/5/16
