# Paragon Purveyors separated asset: 07_meat_piece_05
# Source object: Cube.002
# Role: meat
mtllib 07_meat_piece_05.mtl
o 07_meat_piece_05
v 0.723078 0.146626 -0.197600
v 0.702209 -0.156773 -0.203097
v 0.405439 0.156773 0.448155
v 0.384571 -0.146626 0.442657
v -0.189228 0.048828 -0.321245
v -0.199855 -0.105688 -0.324045
v -0.280219 0.042836 0.354868
v -0.290847 -0.111680 0.352069
v -0.714902 -0.052831 0.115482
v -0.723079 -0.057168 0.385862
v -0.715927 0.046815 0.387747
v -0.707750 0.051151 0.117366
v 0.154819 -0.118437 -0.448155
v 0.063200 0.087948 0.345542
v 0.048523 -0.125437 0.341676
v 0.169496 0.094948 -0.444289
v -0.505638 -0.084542 0.369049
v -0.448974 -0.080759 -0.054872
v -0.440081 0.048542 -0.052529
v -0.496744 0.044758 0.371392
vt 0.189063 0.401362
vt 0.252972 0.447811
vt 0.259981 0.666023
vt 0.197251 0.656276
vt 0.026096 0.860915
vt 0.074458 0.860915
vt 0.058996 0.914263
vt 0.023977 0.914263
vt 0.130778 0.821952
vt 0.125290 0.958596
vt 0.089917 0.967468
vt 0.088987 0.880778
vt 0.224999 0.686138
vt 0.314866 0.755463
vt 0.269409 0.967468
vt 0.214659 0.940739
vt 0.026942 0.692675
vt 0.095705 0.692675
vt 0.095705 0.805709
vt 0.026942 0.805709
vt 0.026096 0.598293
vt 0.074458 0.598293
vt 0.029703 0.389320
vt 0.053270 0.389320
vt 0.053270 0.431809
vt 0.029703 0.431809
vt 0.294849 0.676072
vt 0.290516 0.539262
vt 0.331804 0.599491
vt 0.330141 0.686138
vt 0.056139 0.481562
vt 0.026834 0.481562
vt 0.026834 0.948311
vt 0.056139 0.948311
vt 0.053270 0.982774
vt 0.029703 0.982774
vt 0.023977 0.539262
vt 0.058996 0.539262
vt 0.169089 0.731782
vt 0.160238 0.949727
vt 0.088987 0.468879
vt 0.127749 0.686138
vn -0.130500 0.991400 -0.008800
vn 0.029800 -0.020200 0.999400
vn -0.122400 -0.992200 -0.023000
vn -0.061000 -0.998000 -0.015800
vn 0.894700 -0.069500 0.441200
vn 0.407900 -0.011500 -0.913000
vn -0.997200 0.069100 -0.029000
vn 0.014600 0.999800 0.013100
vn -0.534800 0.052100 -0.843400
vn 0.074200 -0.023200 0.997000
vn -0.328800 0.039700 -0.943600
vn -0.040900 -0.999100 -0.014400
vn -0.287600 0.002400 0.957700
vn -0.118900 0.992200 -0.037300
vn 0.075900 -0.023300 0.996800
vn -0.729600 0.062500 -0.681000
vn 0.009700 0.999900 0.010200
vn -0.127300 -0.991500 -0.025900
usemtl paragon_atlas_material
f 16/1/1 5/2/1 7/3/1 14/4/1
f 15/5/2 14/6/2 7/7/2 8/8/2
f 18/9/3 17/10/3 10/11/3 9/12/3
f 13/13/4 2/14/4 4/15/4 15/16/4
f 2/17/5 1/18/5 3/19/5 4/20/5
f 13/21/6 16/22/6 1/18/6 2/17/6
f 10/23/7 11/24/7 12/25/7 9/26/7
f 20/27/8 19/28/8 12/29/8 11/30/8
f 19/31/9 18/32/9 9/26/9 12/25/9
f 17/33/10 20/34/10 11/35/10 10/36/10
f 6/37/11 5/38/11 16/22/11 13/21/11
f 6/39/12 13/13/12 15/16/12 8/40/12
f 4/20/13 3/19/13 14/6/13 15/5/13
f 1/41/14 16/1/14 14/4/14 3/42/14
f 8/8/15 7/7/15 20/34/15 17/33/15
f 5/38/16 6/37/16 18/32/16 19/31/16
f 7/3/17 5/2/17 19/28/17 20/27/17
f 6/39/18 8/40/18 17/10/18 18/9/18
