# Paragon Purveyors separated asset: 08_meat_piece_06
# Source object: Cube.005
# Role: meat
mtllib 08_meat_piece_06.mtl
o 08_meat_piece_06
v -0.248017 -0.103136 0.278317
v -0.245209 0.108616 0.278721
v -0.244864 -0.093572 -0.228420
v -0.242056 0.118181 -0.228017
v 0.277083 -0.110038 0.246427
v 0.280360 0.137116 0.246897
v 0.245207 -0.108616 -0.278717
v 0.248015 0.103136 -0.278314
v -0.332529 -0.129035 0.019855
v -0.328992 0.137730 0.020363
v 0.328992 -0.137730 -0.020322
v 0.332529 0.129035 -0.019814
v -0.022178 -0.104949 -0.342431
v -0.019370 0.106803 -0.342028
v 0.019368 -0.106803 0.342029
v 0.022176 0.104949 0.342431
v 0.001769 0.133383 0.000278
v -0.001768 -0.133383 -0.000230
vt 0.018751 0.062392
vt 0.128147 0.064004
vt 0.119771 0.107332
vt 0.032934 0.106053
vt 0.028783 0.147311
vt 0.115619 0.148590
vt 0.114951 0.193963
vt 0.028115 0.192684
vt 0.016174 0.237380
vt 0.125570 0.238991
vt 0.128147 0.283895
vt 0.026793 0.282403
vt 0.026125 0.327775
vt 0.112961 0.329054
vt 0.112293 0.374426
vt 0.025457 0.373147
vt 0.243833 0.294028
vt 0.154066 0.320260
vt 0.150957 0.241467
vt 0.215877 0.199426
vt 0.241058 0.104650
vt 0.150957 0.079121
vt 0.190024 0.010784
vt 0.267211 0.009403
vt 0.213199 0.199426
vt 0.159429 0.153750
vt 0.271216 0.388812
vt 0.193873 0.388339
vt 0.030692 0.017702
vt 0.117528 0.018981
vt 0.326865 0.345239
vt 0.333440 0.267252
vt 0.290400 0.199426
vt 0.330687 0.131790
vt 0.334018 0.055328
vt 0.293221 0.199426
vn -0.943500 0.013100 -0.331300
vn 0.231800 -0.001200 -0.972800
vn 0.981200 -0.013400 0.192300
vn -0.231800 0.001200 0.972800
vn 0.004700 -0.996000 0.089000
vn 0.006500 0.995500 0.094300
vn 0.009700 0.997000 -0.076800
vn -0.006500 -0.995500 -0.094300
vn 0.950800 -0.012000 -0.309600
vn -0.950800 0.012000 0.309700
vn -0.055700 -0.992000 -0.113700
vn 0.019900 0.995700 -0.090500
vn -0.041000 0.998700 0.031200
vn -0.019900 -0.995700 0.090500
vn 0.347700 -0.006400 0.937600
vn -0.455400 0.007700 -0.890300
usemtl paragon_atlas_material
f 9/1/1 10/2/1 4/3/1 3/4/1
f 13/5/2 14/6/2 8/7/2 7/8/2
f 11/9/3 12/10/3 6/11/3 5/12/3
f 15/13/4 16/14/4 2/15/4 1/16/4
f 18/17/5 11/18/5 5/19/5 15/20/5
f 17/21/6 10/22/6 2/23/6 16/24/6
f 14/25/7 4/26/7 10/22/7 17/21/7
f 13/27/8 7/28/8 11/18/8 18/17/8
f 7/8/9 8/7/9 12/10/9 11/9/9
f 1/29/10 2/30/10 10/2/10 9/1/10
f 3/31/11 13/27/11 18/17/11 9/32/11
f 8/33/12 14/25/12 17/21/12 12/34/12
f 12/34/13 17/21/13 16/24/13 6/35/13
f 9/32/14 18/17/14 15/20/14 1/36/14
f 5/12/15 6/11/15 16/14/15 15/13/15
f 3/4/16 4/3/16 14/6/16 13/5/16
