# Paragon Purveyors separated asset: 09_meat_piece_07
# Source object: Cube.006
# Role: meat
mtllib 09_meat_piece_07.mtl
o 09_meat_piece_07
v -0.144059 -0.163603 0.200363
v -0.145239 0.062503 0.197603
v 0.203672 -0.170306 -0.497716
v 0.202493 0.055799 -0.500475
v 0.742750 -0.135018 0.500475
v 0.741157 0.170306 0.496750
v 1.042441 -0.143225 -0.300233
v 1.040849 0.162099 -0.303959
v -0.072584 -0.168804 -0.256547
v -0.073765 0.057714 -0.259314
v 1.067678 -0.137478 0.159930
v 1.066086 0.167846 0.156205
v -0.571173 -0.131115 -0.204036
v -0.612538 -0.129984 -0.093519
v -0.613304 0.016837 -0.095311
v -0.571939 0.015704 -0.205828
v -1.025363 -0.090071 -0.449819
v -1.066888 -0.088934 -0.338874
v -1.067678 0.062428 -0.340721
v -1.026153 0.061291 -0.451666
v 0.633550 -0.165586 -0.453045
v 0.632331 0.068058 -0.455896
v 0.445374 -0.147186 0.497270
v 0.443997 0.116853 0.494048
v 0.390636 0.071193 -0.095614
v 0.391855 -0.162451 -0.092763
v 0.418616 -0.168903 -0.475369
v -0.026596 0.064200 0.286034
v 0.136824 -0.166878 -0.188171
v 0.417425 0.059504 -0.478156
v -0.025417 -0.161905 0.288793
v 0.135640 0.060150 -0.190941
v -0.805566 0.017061 -0.299457
v -0.846958 0.018203 -0.188907
v -0.846190 -0.128952 -0.187110
v -0.804799 -0.130102 -0.297660
v -0.322322 0.037095 -0.224767
v -0.352814 0.039367 -0.008404
v -0.351838 -0.147668 -0.006122
v -0.321347 -0.150149 -0.222478
vt 0.885340 0.555109
vt 0.960668 0.555109
vt 0.960531 0.587359
vt 0.885340 0.587359
vt 0.885983 0.625369
vt 0.963681 0.625369
vt 0.993623 0.663773
vt 0.892089 0.663773
vt 0.892089 0.704305
vt 0.993623 0.704305
vt 0.993623 0.745699
vt 0.892089 0.745699
vt 0.885340 0.817149
vt 0.960531 0.817149
vt 0.960531 0.830163
vt 0.885340 0.830163
vt 0.534658 0.582890
vt 0.534614 0.407959
vt 0.639096 0.452306
vt 0.663489 0.520450
vt 0.742206 0.729398
vt 0.746078 0.676306
vt 0.854651 0.701687
vt 0.863705 0.736205
vt 0.651992 0.765696
vt 0.666877 0.715709
vt 0.432730 0.559007
vt 0.432730 0.452363
vt 0.828039 0.633947
vt 0.776921 0.621217
vt 0.804401 0.564360
vt 0.832833 0.565377
vt 0.833622 0.504612
vt 0.805180 0.503598
vt 0.792294 0.427136
vt 0.820836 0.428161
vt 0.566543 0.757583
vt 0.617992 0.746126
vt 0.621002 0.814837
vt 0.592536 0.815114
vt 0.891837 0.855905
vt 0.954034 0.855905
vt 0.947348 0.880071
vt 0.898523 0.880071
vt 0.954104 0.533034
vt 0.891837 0.533033
vt 0.898523 0.511011
vt 0.947348 0.511011
vt 0.913955 0.925718
vt 0.964290 0.925718
vt 0.964290 0.936136
vt 0.913955 0.936136
vt 0.591734 0.875895
vt 0.620209 0.875621
vt 0.605417 0.949652
vt 0.576841 0.949938
vt 0.948584 0.488879
vt 0.899646 0.488879
vt 0.913955 0.465355
vt 0.964290 0.465355
vt 0.899651 0.902204
vt 0.948587 0.902204
vt 0.445969 0.609448
vt 0.534781 0.648636
vt 0.636921 0.948896
vt 0.636921 0.815808
vt 0.740148 0.796002
vt 0.739869 0.988905
vt 0.869557 0.867222
vt 0.845477 0.949255
vt 0.656268 0.644763
vt 0.976377 0.771858
vt 0.888572 0.771858
vt 0.885343 0.606364
vt 0.961299 0.606364
vt 0.537137 0.701733
vt 0.646374 0.679062
vt 0.459203 0.659871
vn -0.657600 -0.012600 -0.753200
vn 0.350500 -0.009600 -0.936500
vn 0.723500 0.012200 0.690200
vn -0.597700 0.006700 0.801700
vn 0.030800 -0.999100 0.028000
vn -0.007200 0.999900 -0.011300
vn -0.011000 0.999800 -0.016400
vn 0.036000 -0.999100 0.020300
vn 0.998500 0.004500 -0.054800
vn -0.082000 0.996200 -0.028400
vn 0.162600 0.985400 0.050700
vn -0.071100 -0.997500 -0.004600
vn -0.317200 0.009900 0.948300
vn -0.074600 -0.012600 -0.997100
vn -0.936500 -0.009200 -0.350400
vn -0.148100 -0.987900 -0.045200
vn 0.567000 -0.007100 -0.823700
vn -0.565700 0.007100 0.824600
vn 0.012000 -0.999800 0.017700
vn -0.154400 0.986700 -0.051400
vn -0.129200 0.987600 -0.088800
vn 0.017700 -0.999600 0.020800
vn -0.011300 0.012100 0.999900
vn 0.103500 -0.011600 -0.994600
vn 0.005200 -0.999900 0.012200
vn -0.033400 0.998900 -0.032900
vn -0.065300 0.996500 -0.053100
vn -0.405100 0.009000 0.914200
vn -0.371800 0.009400 0.928300
vn 0.371900 -0.009400 -0.928200
vn -0.007400 -0.999900 0.007600
vn 0.008700 0.999900 -0.007100
vn -0.136600 -0.012800 -0.990500
vn -0.704700 0.005000 0.709500
vn -0.075500 -0.997100 -0.000100
vn -0.086700 0.996000 -0.023600
usemtl paragon_atlas_material
f 9/1/1 10/2/1 4/3/1 3/4/1
f 21/5/2 22/6/2 8/7/2 7/8/2
f 11/9/3 12/10/3 6/11/3 5/12/3
f 31/13/4 28/14/4 2/15/4 1/16/4
f 26/17/5 11/18/5 5/19/5 23/20/5
f 32/21/6 10/22/6 2/23/6 28/24/6
f 30/25/7 4/26/7 10/22/7 32/21/7
f 21/27/8 7/28/8 11/18/8 26/17/8
f 7/8/9 8/7/9 12/10/9 11/9/9
f 38/29/10 37/30/10 16/31/10 15/32/10
f 34/33/11 33/34/11 20/35/11 19/36/11
f 40/37/12 39/38/12 14/39/12 13/40/12
f 39/41/13 38/42/13 15/43/13 14/44/13
f 37/45/14 40/46/14 13/47/14 16/48/14
f 18/49/15 19/50/15 20/51/15 17/52/15
f 36/53/16 35/54/16 18/55/16 17/56/16
f 33/57/17 36/58/17 17/59/17 20/60/17
f 35/61/18 34/62/18 19/50/18 18/49/18
f 27/63/19 21/27/19 26/17/19 29/64/19
f 8/65/20 22/66/20 25/67/20 12/68/20
f 12/68/21 25/67/21 24/69/21 6/70/21
f 29/64/22 26/17/22 23/20/22 31/71/22
f 5/12/23 6/11/23 24/72/23 23/73/23
f 27/74/24 30/75/24 22/6/24 21/5/24
f 3/4/24 4/3/24 30/75/24 27/74/24
f 9/76/25 29/64/25 31/71/25 1/77/25
f 3/78/25 27/63/25 29/64/25 9/76/25
f 22/66/26 30/25/26 32/21/26 25/67/26
f 25/67/27 32/21/27 28/24/27 24/69/27
f 23/73/28 24/72/28 28/14/28 31/13/28
f 14/44/29 15/43/29 34/62/29 35/61/29
f 16/48/30 13/47/30 36/58/30 33/57/30
f 13/40/31 14/39/31 35/54/31 36/53/31
f 15/32/32 16/31/32 33/34/32 34/33/32
f 10/2/33 9/1/33 40/46/33 37/45/33
f 1/16/34 2/15/34 38/42/34 39/41/34
f 9/76/35 1/77/35 39/38/35 40/37/35
f 2/23/36 10/22/36 37/30/36 38/29/36
