# Paragon Purveyors separated asset: 10_wooden_plate_02
# Source object: Circle.001
# Role: wooden_plate
mtllib 10_wooden_plate_02.mtl
o 10_wooden_plate_02
v -0.036527 0.120106 -0.997127
v -0.525318 0.101221 -0.825181
v -0.862171 0.109943 -0.432240
v -0.957450 0.114116 0.076538
v -0.785624 0.112622 0.564824
v -0.392735 0.105861 0.901782
v 0.115944 0.095645 0.997127
v 0.604734 0.114530 0.825181
v 0.861502 0.157566 0.429349
v 0.957450 0.185472 -0.079566
v 0.785076 0.160662 -0.567738
v 0.473149 0.157620 -0.901987
v -0.010563 0.091218 -0.650692
v -0.329178 0.098354 -0.538552
v -0.549033 0.104047 -0.282088
v -0.611219 0.106770 0.049977
v -0.499073 0.105795 0.368669
v -0.242644 0.101382 0.588592
v 0.089357 0.094714 0.650822
v 0.407972 0.087578 0.538680
v 0.628826 0.129696 0.282012
v 0.691140 0.133094 -0.050079
v 0.578994 0.134069 -0.368771
v 0.322298 0.125668 -0.588640
v 0.013186 0.092049 -0.341357
v -0.153977 0.095793 -0.282522
v -0.269324 0.098780 -0.147969
v -0.301951 0.100209 0.026251
v -0.243113 0.099697 0.193453
v -0.108577 0.097382 0.308838
v 0.065609 0.093883 0.341486
v 0.232771 0.090139 0.282650
v 0.348119 0.087153 0.148096
v 0.381065 0.101019 -0.026188
v 0.322227 0.101531 -0.193391
v 0.187371 0.088550 -0.308708
v -0.084519 -0.168902 -0.880327
v -0.522442 -0.159093 -0.726193
v -0.824624 -0.151269 -0.373696
v -0.910096 -0.147526 0.082715
v -0.755956 -0.148866 0.520742
v -0.403505 -0.154931 0.823020
v 0.052817 -0.164096 0.908551
v 0.490740 -0.173905 0.754418
v 0.792922 -0.181729 0.401919
v 0.878394 -0.185472 -0.054490
v 0.724254 -0.184132 -0.492519
v 0.371803 -0.178067 -0.794795
v -0.065811 -0.168247 -0.636645
v -0.384426 -0.161111 -0.524503
v -0.604282 -0.155418 -0.268041
v -0.666468 -0.152695 0.064024
v -0.554322 -0.153670 0.382716
v -0.297893 -0.158083 0.602641
v 0.034109 -0.164751 0.664870
v 0.352724 -0.171887 0.552728
v 0.572579 -0.177580 0.296266
v 0.634764 -0.180303 -0.035801
v 0.522619 -0.179328 -0.354491
v 0.266190 -0.174915 -0.574416
v -0.042063 -0.167416 -0.327310
v -0.209225 -0.163672 -0.268474
v -0.324573 -0.160686 -0.133920
v -0.357199 -0.159257 0.040299
v -0.298361 -0.159768 0.207502
v -0.163825 -0.162083 0.322885
v 0.010361 -0.165582 0.355533
v 0.177523 -0.169326 0.296699
v 0.292871 -0.172313 0.162145
v 0.325497 -0.173741 -0.012074
v 0.266659 -0.173230 -0.179276
v 0.132123 -0.170915 -0.294662
vt 0.784664 0.331606
vt 0.798224 0.287360
vt 0.855462 0.287576
vt 0.872633 0.331275
vt 0.990951 0.224187
vt 0.934065 0.208780
vt 0.934162 0.151466
vt 0.991130 0.136300
vt 0.871188 0.016146
vt 0.855912 0.073087
vt 0.798579 0.073086
vt 0.783306 0.016146
vt 0.708845 0.287095
vt 0.748605 0.258792
vt 0.946846 0.300339
vt 0.905319 0.258289
vt 0.947275 0.060133
vt 0.905549 0.101786
vt 0.662836 0.224620
vt 0.720002 0.209083
vt 0.707223 0.060144
vt 0.748965 0.101774
vt 0.720394 0.151392
vt 0.663210 0.136406
vt 0.868302 0.138972
vt 0.842269 0.123927
vt 0.771155 0.195002
vt 0.786042 0.221224
vt 0.786174 0.138952
vt 0.771154 0.164968
vt 0.842209 0.236062
vt 0.868228 0.221082
vt 0.883312 0.165023
vt 0.812203 0.123923
vt 0.812066 0.236255
vt 0.883281 0.195080
vt 0.345474 0.135376
vt 0.387359 0.062829
vt 0.418535 0.094005
vt 0.388061 0.146787
vt 0.543677 0.020943
vt 0.616224 0.062829
vt 0.585048 0.094005
vt 0.532266 0.063531
vt 0.658109 0.219146
vt 0.616224 0.291694
vt 0.585048 0.260517
vt 0.615522 0.207735
vt 0.345474 0.219146
vt 0.388061 0.207735
vt 0.459906 0.020943
vt 0.471318 0.063531
vt 0.658109 0.135376
vt 0.615522 0.146787
vt 0.387359 0.291694
vt 0.418535 0.260517
vt 0.543677 0.333579
vt 0.459906 0.333579
vt 0.471318 0.290991
vt 0.532266 0.290991
vt 0.561461 0.193249
vt 0.561461 0.161273
vt 0.442122 0.193249
vt 0.458111 0.220942
vt 0.485803 0.236930
vt 0.517780 0.236930
vt 0.485803 0.117592
vt 0.458111 0.133580
vt 0.545472 0.133580
vt 0.545472 0.220942
vt 0.442122 0.161273
vt 0.517780 0.117592
vt 0.805496 0.395215
vt 0.754029 0.395215
vt 0.754029 0.362280
vt 0.805496 0.362280
vt 0.551303 0.395215
vt 0.502178 0.395215
vt 0.502178 0.362280
vt 0.551303 0.362280
vt 0.399288 0.395215
vt 0.347866 0.395215
vt 0.347866 0.362280
vt 0.399288 0.362280
vt 0.702492 0.395215
vt 0.702492 0.362280
vt 0.856918 0.395215
vt 0.856918 0.362280
vt 0.602777 0.395215
vt 0.602777 0.362280
vt 0.450711 0.395215
vt 0.450711 0.362280
vt 0.908340 0.395215
vt 0.908340 0.362280
vt 0.654234 0.395215
vt 0.654234 0.362280
vt 0.959763 0.395215
vt 0.959763 0.362280
vn -0.160300 0.987000 0.006600
vn 0.020900 0.999800 -0.004300
vn -0.153100 0.987900 0.024800
vn -0.026700 0.999000 -0.034600
vn -0.077900 0.995200 0.059400
vn 0.002800 0.998800 0.049100
vn -0.147500 0.988800 0.021100
vn -0.098400 0.992500 0.072900
vn -0.106100 0.992500 0.060600
vn -0.099400 0.995000 0.014100
vn -0.069800 0.996400 0.048200
vn -0.127100 0.991800 0.009900
vn -0.099900 0.994300 0.038200
vn 0.007300 1.000000 0.000500
vn -0.020900 -0.999800 0.004300
vn -0.311000 -0.325300 -0.893000
vn 0.768400 -0.311000 0.559300
vn -0.640100 -0.197800 0.742400
vn 0.181300 -0.370000 -0.911200
vn -0.738400 -0.246800 -0.627500
vn 0.963700 -0.200900 0.176100
vn -0.182400 -0.277400 0.943300
vn -0.967200 -0.179300 -0.179700
vn 0.920800 -0.224600 -0.318900
vn 0.313200 -0.357000 0.880100
vn -0.931200 -0.160800 0.327200
vn 0.650400 -0.337400 -0.680500
usemtl paragon_atlas_material
f 10/1/1 22/2/1 21/3/1 9/4/1
f 7/5/2 19/6/2 18/7/2 6/8/2
f 4/9/2 16/10/2 15/11/2 3/12/2
f 11/13/3 23/14/3 22/2/3 10/1/3
f 8/15/4 20/16/4 19/6/4 7/5/4
f 5/17/2 17/18/2 16/10/2 4/9/2
f 12/19/5 24/20/5 23/14/5 11/13/5
f 2/21/6 14/22/6 13/23/6 1/24/6
f 9/4/7 21/3/7 20/16/7 8/15/7
f 6/8/2 18/7/2 17/18/2 5/17/2
f 1/24/8 13/23/8 24/20/8 12/19/8
f 3/12/2 15/11/2 14/22/2 2/21/2
f 17/18/2 29/25/2 28/26/2 16/10/2
f 24/20/9 36/27/9 35/28/9 23/14/9
f 14/22/2 26/29/2 25/30/2 13/23/2
f 21/3/10 33/31/10 32/32/10 20/16/10
f 18/7/2 30/33/2 29/25/2 17/18/2
f 13/23/11 25/30/11 36/27/11 24/20/11
f 15/11/2 27/34/2 26/29/2 14/22/2
f 22/2/12 34/35/12 33/31/12 21/3/12
f 19/6/2 31/36/2 30/33/2 18/7/2
f 16/10/2 28/26/2 27/34/2 15/11/2
f 23/14/13 35/28/13 34/35/13 22/2/13
f 20/16/2 32/32/2 31/36/2 19/6/2
f 26/29/14 27/34/14 28/26/14 29/25/14 30/33/14 31/36/14 32/32/14 33/31/14 34/35/14 35/28/14 36/27/14 25/30/14
f 46/37/15 45/38/15 57/39/15 58/40/15
f 43/41/15 42/42/15 54/43/15 55/44/15
f 40/45/15 39/46/15 51/47/15 52/48/15
f 47/49/15 46/37/15 58/40/15 59/50/15
f 44/51/15 43/41/15 55/44/15 56/52/15
f 41/53/15 40/45/15 52/48/15 53/54/15
f 48/55/15 47/49/15 59/50/15 60/56/15
f 38/57/15 37/58/15 49/59/15 50/60/15
f 45/38/15 44/51/15 56/52/15 57/39/15
f 42/42/15 41/53/15 53/54/15 54/43/15
f 37/58/15 48/55/15 60/56/15 49/59/15
f 39/46/15 38/57/15 50/60/15 51/47/15
f 53/54/15 52/48/15 64/61/15 65/62/15
f 60/56/15 59/50/15 71/63/15 72/64/15
f 50/60/15 49/59/15 61/65/15 62/66/15
f 57/39/15 56/52/15 68/67/15 69/68/15
f 54/43/15 53/54/15 65/62/15 66/69/15
f 49/59/15 60/56/15 72/64/15 61/65/15
f 51/47/15 50/60/15 62/66/15 63/70/15
f 58/40/15 57/39/15 69/68/15 70/71/15
f 55/44/15 54/43/15 66/69/15 67/72/15
f 52/48/15 51/47/15 63/70/15 64/61/15
f 59/50/15 58/40/15 70/71/15 71/63/15
f 56/52/15 55/44/15 67/72/15 68/67/15
f 62/66/15 61/65/15 72/64/15 71/63/15 70/71/15 69/68/15 68/67/15 67/72/15 66/69/15 65/62/15 64/61/15 63/70/15
f 2/73/16 1/74/16 37/75/16 38/76/16
f 9/77/17 8/78/17 44/79/17 45/80/17
f 6/81/18 5/82/18 41/83/18 42/84/18
f 1/74/19 12/85/19 48/86/19 37/75/19
f 3/87/20 2/73/20 38/76/20 39/88/20
f 10/89/21 9/77/21 45/80/21 46/90/21
f 7/91/22 6/81/22 42/84/22 43/92/22
f 4/93/23 3/87/23 39/88/23 40/94/23
f 11/95/24 10/89/24 46/90/24 47/96/24
f 8/78/25 7/91/25 43/92/25 44/79/25
f 5/97/26 4/93/26 40/94/26 41/98/26
f 12/85/27 11/95/27 47/96/27 48/86/27
